<?xml version="1.0" encoding="UTF-8"?>
<svg version="1.1" xmlns="http://www.w3.org/2000/svg" width="1024" height="1024">
<path d="M0 0 C1.50538588 0.01096952 3.01077225 0.02187324 4.51615906 0.03271484 C7.66056759 0.05855765 10.80472191 0.09385618 13.94897461 0.13427734 C17.9463272 0.18369126 21.94288342 0.19627417 25.94050312 0.19993591 C29.04752825 0.20925295 32.15385454 0.24524124 35.26058006 0.28817749 C36.73265521 0.30416581 38.20486983 0.31065228 39.67702675 0.30679321 C50.33474179 0.29254773 59.52617463 1.8396924 67.70869446 9.22753906 C75.08312993 16.98822387 76.6250756 25.52459812 76.546875 35.9921875 C76.54475258 37.0781572 76.54475258 37.0781572 76.54258728 38.18606567 C76.5370295 40.47825407 76.52448508 42.77034157 76.51171875 45.0625 C76.50669828 46.62499858 76.50213634 48.18749871 76.49804688 49.75 C76.48707394 53.56253835 76.46983885 57.37500212 76.44921875 61.1875 C77.15232178 61.28619385 77.8554248 61.3848877 78.57983398 61.48657227 C86.77509145 62.73302215 94.5818791 64.72961996 102.51171875 67.125 C103.15485016 67.31869171 103.79798157 67.51238342 104.46060181 67.71194458 C125.84676437 74.19650985 150.87133706 81.86818124 168.44921875 96.1875 C171.49814991 95.05826624 173.09463449 93.5531342 175.07421875 91.0625 C175.85796875 90.11375 176.64171875 89.165 177.44921875 88.1875 C178.10921875 88.1875 178.76921875 88.1875 179.44921875 88.1875 C179.65546875 87.65898437 179.86171875 87.13046875 180.07421875 86.5859375 C184.83583956 78.28015575 195.35921955 68.13980743 204.44921875 65.1875 C212.14947419 64.25510999 218.53025468 64.31492242 225.44921875 68.1875 C227.84967041 70.08460999 227.84967041 70.08460999 230.16113281 72.22680664 C231.02420044 73.02563263 231.88726807 73.82445862 232.77648926 74.64749146 C237.25344605 78.90213396 241.67371681 83.20915977 246.05859375 87.55859375 C246.53839943 88.0343239 247.01820511 88.51005405 247.51255035 89.00020027 C250.04462095 91.51164724 252.57357211 94.02618825 255.10009766 96.54321289 C257.68243372 99.11443884 260.27626248 101.67374596 262.87273788 104.23068142 C264.89568681 106.22731142 266.90953299 108.2329437 268.92115021 110.24098396 C270.32928742 111.64199887 271.74699853 113.03337062 273.16497803 114.42442322 C280.49705019 121.78120211 286.97463548 129.18739677 287.69921875 139.875 C287.44999988 150.24633898 282.55740702 156.04914969 275.44921875 163.1875 C274.61318115 164.03393066 274.61318115 164.03393066 273.76025391 164.89746094 C270.01603281 168.68760461 266.24274739 172.44674069 262.44921875 176.1875 C266.98727061 183.42876644 266.98727061 183.42876644 271.75390625 190.51953125 C289.94285192 216.74622356 311.44921875 257.47311194 311.44921875 290.1875 C312.40175537 290.16655273 313.35429199 290.14560547 314.33569336 290.12402344 C317.90829113 290.05099877 321.48082455 290.00547662 325.05395508 289.96777344 C326.59313086 289.94779879 328.13223213 289.92060903 329.67114258 289.88574219 C346.18782962 289.52120641 346.18782962 289.52120641 353.44921875 294.1875 C354.25875 294.70570313 355.06828125 295.22390625 355.90234375 295.7578125 C362.14353257 301.15779761 365.92247426 306.76739368 366.91583252 315.10302734 C367.1721162 319.83855993 367.14555909 324.57172337 367.11328125 329.3125 C367.11665638 331.0678745 367.12151477 332.82324671 367.1277771 334.57861328 C367.13511567 338.24339217 367.12454119 341.90755842 367.10107422 345.57226562 C367.07258781 350.24607113 367.08900813 354.91844065 367.11893654 359.5921936 C367.13709175 363.21275454 367.13121408 366.83298067 367.11829758 370.45355225 C367.11498621 372.17576268 367.11896983 373.89800452 367.13069534 375.62017822 C367.18961829 386.70413564 366.51091287 395.36655176 358.94921875 404.0625 C358.12421875 404.76375 357.29921875 405.465 356.44921875 406.1875 C355.68609375 406.88875 354.92296875 407.59 354.13671875 408.3125 C345.52401828 414.3213608 336.47954876 413.54448167 326.44921875 413.375 C324.89584627 413.35992973 323.34245969 413.34624546 321.7890625 413.33398438 C318.0087626 413.30115497 314.22914812 413.24950254 310.44921875 413.1875 C310.22468018 414.26604248 310.0001416 415.34458496 309.76879883 416.45581055 C305.62960549 435.93356959 298.06941197 454.29384743 289.44921875 472.1875 C288.90539551 473.32421143 288.90539551 473.32421143 288.35058594 474.48388672 C281.05027664 489.54280611 271.76714061 503.32745636 262.44921875 517.1875 C266.09216913 522.29182897 269.87600228 526.78301705 274.44921875 531.0625 C281.45417421 537.83709333 286.88818312 544.7916938 287.76171875 554.75 C287.45021669 566.78732955 280.5390913 574.17113748 272.44921875 582.1875 C270.52686312 584.11019965 268.60499054 586.03337411 266.68359375 587.95703125 C263.54617704 591.09786398 260.40518645 594.23470513 257.24682617 597.35449219 C256.74922791 597.84761398 256.25162964 598.34073578 255.73895264 598.84880066 C254.3653423 600.20958851 252.98926141 601.56788122 251.61303711 602.92602539 C249.32313947 605.18764825 249.32313947 605.18764825 247.44921875 608.1875 C246.78921875 608.1875 246.12921875 608.1875 245.44921875 608.1875 C245.18963379 608.77015625 244.93004883 609.3528125 244.66259766 609.953125 C242.47349297 613.98424897 239.04295658 616.96292054 235.82421875 620.1875 C235.13714844 620.8990625 234.45007813 621.610625 233.7421875 622.34375 C227.45372231 628.66760993 221.24276475 632.61950529 212.26171875 633.5 C199.67464232 632.46827242 192.58672436 622.66524865 184.51586914 614.00073242 C182.82749556 612.19794916 181.11836727 610.41692184 179.40625 608.63671875 C178.89673294 608.07538742 178.38721588 607.51405609 177.86225891 606.93571472 C176.23414115 605.17306444 176.23414115 605.17306444 173.44921875 603.1875 C169.35280719 603.20234441 166.51949173 604.43168455 163.078125 606.55859375 C162.26883545 607.04553711 161.4595459 607.53248047 160.62573242 608.03417969 C159.76310791 608.55915039 158.9004834 609.08412109 158.01171875 609.625 C135.17710172 623.04462388 110.09460847 632.40826452 84.13842773 637.6418457 C83.27290283 637.8193335 82.40737793 637.99682129 81.515625 638.1796875 C80.37009155 638.40180908 80.37009155 638.40180908 79.20141602 638.62841797 C78.62319092 638.81291504 78.04496582 638.99741211 77.44921875 639.1875 C75.90382629 642.27828493 76.29230462 645.5483591 76.2734375 648.94140625 C76.25021689 650.5345181 76.22609868 652.12761706 76.20117188 653.72070312 C76.16623816 656.22640313 76.13681788 658.73163638 76.12329102 661.23754883 C76.00746178 679.1910797 76.00746178 679.1910797 71.44921875 686.1875 C71.06531982 686.80141602 70.6814209 687.41533203 70.28588867 688.04785156 C66.07614518 693.80232103 60.06170767 696.85389473 53.44921875 699.1875 C47.76358509 700.00837689 42.17564734 700.01167212 36.44140625 699.94921875 C34.82341224 699.95072531 33.20541901 699.95416546 31.58743286 699.95942688 C28.21693097 699.96373084 24.84739504 699.94712782 21.47705078 699.91479492 C17.18211652 699.87495153 12.88898458 699.88435952 8.59399223 699.90902996 C5.25991325 699.92328706 1.92624736 699.9130693 -1.40780258 699.89551735 C-2.99044684 699.88971716 -4.57313427 699.8908956 -6.15576553 699.89954185 C-15.29631966 699.9328725 -22.69420703 699.41316546 -30.55078125 694.1875 C-31.47890625 693.589375 -32.40703125 692.99125 -33.36328125 692.375 C-38.85312044 686.88516081 -42.58213134 679.96955262 -42.77783203 672.10986328 C-42.77751901 670.57580991 -42.76643644 669.04173102 -42.74609375 667.5078125 C-42.74184891 666.28866653 -42.74184891 666.28866653 -42.73751831 665.04489136 C-42.72638744 662.46727325 -42.7012964 659.89001181 -42.67578125 657.3125 C-42.66574226 655.55729671 -42.65661802 653.80208794 -42.6484375 652.046875 C-42.6264714 647.76028074 -42.59199103 643.4739507 -42.55078125 639.1875 C-43.43089119 639.09947617 -43.43089119 639.09947617 -44.32878113 639.00967407 C-77.5357134 635.53385993 -110.56927853 620.80259642 -138.55078125 603.1875 C-139.02128906 603.60902344 -139.49179687 604.03054688 -139.9765625 604.46484375 C-140.59917969 605.01269531 -141.22179687 605.56054688 -141.86328125 606.125 C-142.47816406 606.67027344 -143.09304688 607.21554687 -143.7265625 607.77734375 C-145.55078125 609.1875 -145.55078125 609.1875 -148.55078125 610.1875 C-149.25762022 611.49997891 -149.92040608 612.83663015 -150.55078125 614.1875 C-152.62553821 616.66896572 -154.94599068 618.90713602 -157.23828125 621.1875 C-157.83833984 621.80367187 -158.43839844 622.41984375 -159.05664062 623.0546875 C-164.60552153 628.60952853 -170.09344182 632.78387774 -178.17578125 633.26171875 C-196.05708854 632.7029279 -210.44920027 611.53786319 -222.35253906 599.6809082 C-224.91913843 597.12544886 -227.49724203 594.58191895 -230.07792473 592.04069424 C-232.09228633 590.05264172 -234.09755419 588.05559638 -236.10058975 586.05613899 C-237.49986432 584.66397902 -238.90871271 583.28146245 -240.31784058 581.89927673 C-247.85693988 574.33458278 -254.45806905 566.60770344 -254.92578125 555.5625 C-254.54561021 540.17675448 -239.70433307 529.28247364 -229.55078125 519.1875 C-231.15135776 514.51165851 -233.69692745 510.756718 -236.42578125 506.6875 C-255.29242834 477.95567253 -270.62899216 447.04153049 -277.55078125 413.1875 C-278.49808105 413.20844727 -279.44538086 413.22939453 -280.42138672 413.25097656 C-283.98122141 413.3196942 -287.54033777 413.36955995 -291.10058594 413.40722656 C-292.63292659 413.42717724 -294.16519277 413.45434816 -295.69726562 413.48925781 C-306.32302598 413.72507756 -314.68783952 413.0209619 -323.80078125 407.0625 C-330.41707031 400.14547053 -333.68754557 393.16539736 -333.74365234 383.66186523 C-333.75182983 382.89720444 -333.76000732 382.13254364 -333.76843262 381.3447113 C-333.79325903 378.81184665 -333.80980013 376.27903817 -333.82421875 373.74609375 C-333.82954243 372.87872149 -333.8348661 372.01134922 -333.8403511 371.11769295 C-333.86707729 366.52207448 -333.88644943 361.92648305 -333.90087891 357.33081055 C-333.91418927 353.53922241 -333.94198853 349.74817614 -333.98291016 345.95678711 C-334.0324214 341.36911929 -334.05702311 336.78194096 -334.06410599 332.19401741 C-334.0707897 330.4522168 -334.08593611 328.71042586 -334.1099968 326.96877861 C-334.25352351 315.94605466 -333.68541645 307.37303001 -326.375 298.56640625 C-325.31732422 297.66728516 -325.31732422 297.66728516 -324.23828125 296.75 C-323.54089844 296.13253906 -322.84351563 295.51507813 -322.125 294.87890625 C-313.5071179 289.21647385 -304.48547481 289.64675052 -294.55078125 289.5 C-292.99736782 289.4667797 -291.44398108 289.43228578 -289.890625 289.39648438 C-286.11082532 289.31211752 -282.33108035 289.24505671 -278.55078125 289.1875 C-278.40568115 288.47956299 -278.26058105 287.77162598 -278.11108398 287.04223633 C-270.60970673 250.86204476 -257.8853942 217.55699143 -236.55078125 187.1875 C-235.83019531 186.14851562 -235.10960937 185.10953125 -234.3671875 184.0390625 C-232.77212509 181.7475644 -231.16799923 179.46338623 -229.55078125 177.1875 C-234.21979582 171.58325469 -239.19702796 166.51086959 -244.515625 161.52539062 C-250.70317162 155.51983067 -254.56025696 148.75580704 -254.86328125 140 C-254.57412744 125.25315582 -240.51864529 114.98613607 -230.92578125 105.32421875 C-230.43777039 104.83213236 -229.94975952 104.34004597 -229.44696045 103.83304787 C-226.87182881 101.2372904 -224.29360193 98.64465298 -221.71289062 96.05444336 C-219.07207381 93.40250237 -216.44316984 90.73906187 -213.81661987 88.07300091 C-211.76939376 85.99950456 -209.71321079 83.93506338 -207.65460205 81.87287331 C-206.68171851 80.89516505 -205.71217116 79.91412375 -204.74627686 78.92951012 C-197.59976314 71.65296356 -190.47048082 64.70314355 -179.80078125 64.12890625 C-165.70524886 64.49597741 -157.26337281 75.18817794 -147.98828125 84.625 C-146.96987553 85.65346485 -145.95099813 86.68146287 -144.93164062 87.70898438 C-142.46590669 90.19647802 -140.00656851 92.69018128 -137.55078125 95.1875 C-136.61621094 94.71441406 -135.68164062 94.24132812 -134.71875 93.75390625 C-131.12395797 91.94001183 -127.51936572 90.14636612 -123.91113281 88.359375 C-122.38242591 87.60039764 -120.85559975 86.83761542 -119.33105469 86.0703125 C-95.38610858 74.04988562 -69.72775672 65.78526232 -43.55078125 60.1875 C-43.54667236 59.11902832 -43.54256348 58.05055664 -43.53833008 56.94970703 C-43.51637046 52.94223395 -43.46191037 48.93571946 -43.39819336 44.92871094 C-43.37515879 43.20256823 -43.36065215 41.47628787 -43.35522461 39.75 C-43.28644107 21.46416021 -43.28644107 21.46416021 -37.55078125 13.1875 C-36.97328125 12.28 -36.39578125 11.3725 -35.80078125 10.4375 C-25.42864422 0.06536297 -13.89407077 -0.14072558 0 0 Z M-29.55078125 95.1875 C-30.43314453 95.32671875 -31.31550781 95.4659375 -32.22460938 95.609375 C-54.60998181 99.16731499 -75.87126202 105.9878374 -96.55078125 115.1875 C-97.4442627 115.58340332 -98.33774414 115.97930664 -99.25830078 116.38720703 C-123.48440554 127.23752568 -145.71314594 141.53915327 -165.55078125 159.1875 C-166.05416016 159.62916504 -166.55753906 160.07083008 -167.07617188 160.52587891 C-214.56548407 202.26953298 -242.25024314 263.11913644 -246.86328125 325.75 C-251.29013881 396.05785568 -229.73416867 463.63933651 -183.21875 516.85546875 C-170.43407534 531.09339368 -157.10832849 544.97648176 -141.55078125 556.1875 C-140.55763916 556.91525635 -140.55763916 556.91525635 -139.54443359 557.65771484 C-129.86678772 564.73820802 -119.98754377 571.28431883 -109.55078125 577.1875 C-108.86918945 577.58146973 -108.18759766 577.97543945 -107.48535156 578.38134766 C-70.02418675 599.89125181 -27.10501423 608.40591016 15.69921875 608.4375 C16.52970734 608.43817474 17.36019592 608.43884949 18.21585083 608.43954468 C56.93343427 608.38992756 94.60066083 600.37703205 129.44921875 583.1875 C130.27583008 582.78305664 131.10244141 582.37861328 131.95410156 581.96191406 C149.29524058 573.39767261 165.23435941 563.11560145 180.44921875 551.1875 C181.38121094 550.46046875 182.31320312 549.7334375 183.2734375 548.984375 C189.04907282 544.37675519 194.32393613 539.47419302 199.453125 534.15625 C201.44921875 532.1875 201.44921875 532.1875 203.44921875 531.1875 C203.44921875 530.5275 203.44921875 529.8675 203.44921875 529.1875 C204.10921875 529.1875 204.76921875 529.1875 205.44921875 529.1875 C206.95195761 527.74066948 206.95195761 527.74066948 208.51171875 525.8125 C210.45270603 523.51679431 212.39029443 521.24998505 214.453125 519.0625 C221.97934114 511.07888951 228.21383342 502.19310996 234.44921875 493.1875 C234.93181152 492.49237305 235.4144043 491.79724609 235.91162109 491.08105469 C248.26356462 473.1138042 258.04765746 453.68044813 265.44921875 433.1875 C265.7622998 432.32382812 266.07538086 431.46015625 266.39794922 430.5703125 C288.7278353 368.18840852 284.88869236 297.30646264 257.17578125 237.17578125 C248.18024627 218.28552707 237.13829942 200.99826396 223.44921875 185.1875 C222.48435547 184.04667969 222.48435547 184.04667969 221.5 182.8828125 C219.84735433 180.95405896 218.15509216 179.06934772 216.44921875 177.1875 C216.02850098 176.71248047 215.6077832 176.23746094 215.17431641 175.74804688 C208.42355954 168.12943474 201.50009203 161.45758409 193.44921875 155.1875 C192.32779886 154.25873516 191.20946122 153.32623986 190.09375 152.390625 C149.5827016 118.68110448 99.09039428 100.49680937 47.44921875 93.1875 C46.65523682 93.0726123 45.86125488 92.95772461 45.04321289 92.83935547 C35.89213447 91.71963284 26.59082306 91.94435527 17.38671875 91.9375 C16.45058746 91.93649292 15.51445618 91.93548584 14.54995728 91.93444824 C-0.37122634 91.94529247 -14.81456239 92.68288258 -29.55078125 95.1875 Z " fill="#fff" transform="translate(498.55078125,158.8125)"/>
<path d="M0 0 C0.02505615 1.29623291 0.0501123 2.59246582 0.07592773 3.92797852 C0.17040481 8.7568477 0.27052574 13.5855865 0.37231445 18.41430664 C0.41551134 20.50053854 0.45719658 22.58680233 0.49731445 24.6730957 C0.55538798 27.67929679 0.61897393 30.68533961 0.68359375 33.69140625 C0.70030624 34.61772354 0.71701874 35.54404083 0.73423767 36.49842834 C0.43212382 45.44681014 0.43212382 45.44681014 4 53 C6.6435085 53.30198688 6.6435085 53.30198688 9.79026222 53.24609566 C11.03084975 53.25007775 12.27143728 53.25405985 13.54961836 53.25816262 C14.93897361 53.2524558 16.32832811 53.24656459 17.71768188 53.24050903 C19.18371288 53.24138043 20.64974358 53.2431302 22.1157726 53.24568737 C26.15885212 53.2501778 30.20182649 53.24213407 34.2448926 53.23213124 C38.59936307 53.22352334 42.95382725 53.22641501 47.30830383 53.22793579 C54.85755451 53.22898633 62.40677072 53.22269209 69.95601273 53.21146011 C80.87104962 53.19523095 91.78606979 53.18999976 102.70111744 53.18748413 C120.40850182 53.18310296 138.1158678 53.16978243 155.82324219 53.15087891 C173.02799385 53.13253101 190.23274053 53.11836918 207.4375 53.10986328 C208.49735798 53.10933783 209.55721597 53.10881239 210.64919086 53.10827102 C215.96599485 53.10566101 221.28279888 53.10313358 226.59960294 53.10064721 C270.73308137 53.07990158 314.86653974 53.04466459 359 53 C359.69810704 49.65141204 360.14074966 46.54026802 360.20532227 43.11791992 C360.22526749 42.17732224 360.24521271 41.23672455 360.26576233 40.2676239 C360.28247482 39.2653627 360.29918732 38.2631015 360.31640625 37.23046875 C360.3475779 35.67625969 360.3475779 35.67625969 360.37937927 34.09065247 C360.4446213 30.78966735 360.50364179 27.48860451 360.5625 24.1875 C360.60570932 21.94595559 360.64932438 19.70441897 360.69335938 17.46289062 C360.80027667 11.97534193 360.90208962 6.48771639 361 1 C362.11135921 1.93747557 363.22055563 2.87751539 364.32885742 3.81860352 C365.25573616 4.60340843 365.25573616 4.60340843 366.20133972 5.40406799 C375.4653619 13.62393568 382.53735483 24.53293743 389 35 C389.71373779 36.15218018 389.71373779 36.15218018 390.44189453 37.32763672 C404.36456612 60.07268503 413.90660852 84.58201561 419.75 110.5625 C419.94891846 111.43527588 420.14783691 112.30805176 420.3527832 113.20727539 C423.62543745 128.57091993 424.37928472 144.02479452 424.3125 159.6875 C424.31100952 160.5588559 424.30951904 161.43021179 424.3079834 162.32797241 C424.26580847 176.09037577 423.51597134 189.44416759 421 203 C420.74213047 204.55077177 420.48431713 206.10155288 420.2265625 207.65234375 C412.76419679 249.54648263 391.42042519 292.0009257 361 322 C360.99365209 320.18884012 360.99365209 320.18884012 360.98717594 318.34109116 C360.88654187 289.69118212 360.78084052 261.04129476 360.66888306 232.3914278 C360.65511317 228.86658352 360.64138612 225.34173908 360.62768555 221.81689453 C360.62495724 221.1151493 360.62222894 220.41340407 360.61941796 219.69039384 C360.57532008 208.3217184 360.5346943 196.95303306 360.49534739 185.5843403 C360.45490904 173.92257774 360.4106758 162.26083417 360.36312145 150.59909844 C360.33652563 144.04739223 360.31167263 137.49568966 360.29092598 130.9439621 C360.27135797 124.78154254 360.2472136 118.61915813 360.21950912 112.45676994 C360.21013958 110.19120102 360.20246395 107.92562438 360.19658089 105.66004372 C360.18831813 102.57416606 360.17404082 99.48837364 360.15821838 96.40252686 C360.15675122 95.04844463 360.15675122 95.04844463 360.15525442 93.66700721 C360.14977998 92.84044505 360.14430554 92.0138829 360.1386652 91.16227341 C360.13600716 90.44991807 360.13334911 89.73756273 360.13061053 89.00362086 C359.99350401 86.9003488 359.57182453 85.02488448 359 83 C313.80914291 82.97713264 268.61828643 82.95950127 223.42742471 82.94893467 C218.09744979 82.9476839 212.76747489 82.94638958 207.4375 82.94506836 C206.37635638 82.94480605 205.31521275 82.94454374 204.22191326 82.94427348 C187.01906899 82.93991706 169.81622805 82.93202966 152.61338575 82.9228472 C134.97388273 82.91350989 117.33438146 82.90794423 99.69487607 82.90591151 C88.80223043 82.90453644 77.90959418 82.90018673 67.01695143 82.89208353 C59.55687552 82.88681512 52.0968045 82.88519592 44.63672687 82.88649862 C40.32670552 82.88714185 36.01670065 82.88612617 31.70668221 82.88079453 C27.76640159 82.8759556 23.82614865 82.87566463 19.88586681 82.87910111 C18.45515372 82.87952631 17.02443896 82.87823472 15.59372921 82.87511682 C13.6592442 82.87114384 11.72474882 82.87384747 9.79026222 82.87695217 C8.17379278 82.87638259 8.17379278 82.87638259 6.52466738 82.8758015 C4.00458245 82.82990622 4.00458245 82.82990622 2 84 C1.09734001 86.70797997 0.87165954 88.27453876 0.8613348 91.05484295 C0.85586036 91.88289745 0.85038591 92.71095195 0.84474558 93.56409901 C0.84376747 94.47362429 0.84278936 95.38314956 0.84178162 96.32023621 C0.83684364 97.28651784 0.83190566 98.25279947 0.82681805 99.24836236 C0.81140613 102.50045269 0.80307242 105.75252321 0.79467773 109.00463867 C0.78510212 111.33017655 0.77509222 113.65571267 0.76467896 115.98124695 C0.73758958 122.30730265 0.71660186 128.63336584 0.69667697 134.95944762 C0.677053 140.89697057 0.65289723 146.83447358 0.62875474 152.77197961 C0.58107958 164.53343901 0.53781519 176.29491035 0.49731445 188.05639648 C0.45795914 199.4825127 0.41653283 210.90861832 0.37231445 222.3347168 C0.36959018 223.03885958 0.36686591 223.74300237 0.36405908 224.46848281 C0.3503796 228.00091186 0.33665933 231.53334075 0.32291877 235.06576955 C0.20895519 264.37715726 0.10221889 293.68856899 0 323 C-0.66 323 -1.32 323 -2 323 C-3.75405312 320.99623793 -5.3853273 318.98741226 -7 316.875 C-7.48911865 316.24190918 -7.9782373 315.60881836 -8.48217773 314.95654297 C-37.19407889 277.55374705 -57.37759543 236.26946377 -63 189 C-63.0942627 188.20754883 -63.18852539 187.41509766 -63.28564453 186.59863281 C-69.61304846 126.26757211 -53.66191377 63.8554976 -15.56689453 16.20751953 C-2.31820497 0 -2.31820497 0 0 0 Z " fill="#fff" transform="translate(335,344)"/>
<path d="M0 0 C1.02963867 0.31348389 1.02963867 0.31348389 2.08007812 0.63330078 C28.6297139 9.03229693 48.7396343 27.71066971 61.97460938 51.99267578 C67.1239178 62.07306003 70.11701148 72.87069474 72 84 C72.13148438 84.7734375 72.26296875 85.546875 72.3984375 86.34375 C76.05732957 112.84599526 68.91050362 139.20804473 53.890625 161.0703125 C52.00962037 163.47047441 50.04348488 165.73757031 48 168 C47.3503125 168.80179688 46.700625 169.60359375 46.03125 170.4296875 C30.43114083 189.11489288 5.94866741 201.78547975 -18 205 C-37.85239809 206.45999555 -57.87591727 204.77838603 -76 196 C-76.99 195.01 -76.99 195.01 -78 194 C-71.21104838 186.52603704 -64.32172426 179.20214664 -57.1027832 172.13989258 C-54.1856677 169.35058495 -54.1856677 169.35058495 -52 166 C-51.34 166 -50.68 166 -50 166 C-49.731875 165.4328125 -49.46375 164.865625 -49.1875 164.28125 C-46.83075696 159.75382258 -44.71442081 156.28577979 -40 154 C-36.22025908 154.36358229 -32.91450062 155.14085278 -29.27490234 156.15454102 C-12.609663 160.75062076 3.63767829 158.16277096 18.7421875 149.9296875 C30.62361788 142.89200571 38.58903956 131.78389937 42.5 118.625 C45.61143872 105.89638705 45.82624038 93.81901887 43 81 C42.55011719 81.70382812 42.10023438 82.40765625 41.63671875 83.1328125 C16.24944885 122.10405247 16.24944885 122.10405247 -1 126 C-10.50280444 127.23153683 -19.20697759 124.23407522 -26.8984375 118.73046875 C-36.74872906 110.61954094 -40.41947433 102.09973105 -41.8125 89.5625 C-42.17567109 82.66224925 -40.40287627 76.46848062 -36 71 C-29.95986088 65.63233131 -23.09136657 61.3785817 -16.25 57.125 C-8.01386942 51.94922905 0.08010787 46.64852684 8 41 C1.75881808 39.84546811 -4.2941568 39.7787439 -10.625 39.75 C-11.73746094 39.729375 -12.84992188 39.70875 -13.99609375 39.6875 C-30.73834844 39.60953839 -45.90837245 45.20226617 -58 57 C-70.39479387 71.76723488 -74.5700093 88.07335249 -73 107 C-72.29770504 111.12438677 -71.3282898 115.0357776 -70 119 C-69.67 119.99 -69.34 120.98 -69 122 C-76.75771241 128.09823654 -84.65909906 133.92992104 -92.74291992 139.58886719 C-99.88283749 144.5956402 -106.99769535 149.66860191 -113.703125 155.25 C-116 157 -116 157 -118 157 C-127.94592766 140.77708688 -133.80969235 125.0638162 -135 106 C-135.07089844 104.91589844 -135.14179688 103.83179688 -135.21484375 102.71484375 C-136.06025939 75.96589296 -125.98004548 48.79107905 -108 29 C-93.15305806 13.37762586 -74.96854599 2.84638868 -54 -2 C-53.02417969 -2.22558594 -52.04835938 -2.45117188 -51.04296875 -2.68359375 C-34.13193607 -5.89735487 -16.42487725 -5.01273733 0 0 Z " fill="#fff" transform="translate(546,459)"/>
<path d="M0 0 C1.47509033 0.76207764 1.47509033 0.76207764 2.97998047 1.53955078 C9.8031325 5.17344875 9.8031325 5.17344875 12.0625 8.5625 C-74.3975 8.5625 -160.8575 8.5625 -249.9375 8.5625 C-249.9375 7.9025 -249.9375 7.2425 -249.9375 6.5625 C-172.5509696 -38.58853774 -79.6882976 -41.21981782 0 0 Z " fill="#fff" transform="translate(633.9375,299.4375)"/>
<path d="M0 0 C79.53 0 159.06 0 241 0 C197.7412719 32.44404607 132.89824192 37.50985664 81.26953125 30.22265625 C53.91847718 26.02884356 24.32493109 17.41685887 1 2 C0.67 1.34 0.34 0.68 0 0 Z " fill="#fff" transform="translate(395,715)"/>
<path d="M0 0 C1.14537231 -0.00394272 2.29074463 -0.00788544 3.4708252 -0.01194763 C7.25036586 -0.01865136 11.0286944 0.01049108 14.80810547 0.04077148 C17.43553432 0.04502198 20.06296693 0.0473502 22.69039917 0.0478363 C28.19316978 0.0524582 33.69559341 0.07606066 39.19824219 0.11230469 C45.55695745 0.15407624 51.91536073 0.17162227 58.27420533 0.17492443 C64.39849876 0.17817849 70.52268229 0.19328708 76.64693832 0.21491814 C79.25050085 0.22380711 81.85407168 0.23053382 84.45764542 0.23507881 C88.09169749 0.24410401 91.72541363 0.26647939 95.359375 0.29296875 C96.43895477 0.29363342 97.51853455 0.2942981 98.63082886 0.29498291 C100.11537567 0.3099456 100.11537567 0.3099456 101.62991333 0.32521057 C102.91795207 0.33218633 102.91795207 0.33218633 104.2320118 0.33930302 C106.78612044 0.6258201 108.37672218 1.24410034 110.55029297 2.59936523 C112.64412909 5.29144025 113.48448258 7.15749545 113.98779297 10.53686523 C113.42701793 14.4622905 112.04740348 16.54734128 109.55029297 19.59936523 C106.53738737 21.49422116 104.22856916 21.85148953 100.69911194 21.86006165 C99.23763985 21.87068886 99.23763985 21.87068886 97.74664307 21.88153076 C96.68419373 21.87905334 95.62174438 21.87657593 94.52709961 21.87402344 C93.40313278 21.87913437 92.27916595 21.8842453 91.12113953 21.88951111 C87.40085546 21.90342624 83.68075624 21.9024489 79.96044922 21.90014648 C77.37739493 21.90403226 74.79434127 21.90836668 72.21128845 21.91313171 C66.79505065 21.920598 61.37888467 21.92043768 55.96264648 21.91503906 C49.7062127 21.90899878 43.45000377 21.92131245 37.19360834 21.94260913 C31.16972471 21.96235874 25.14595875 21.96539778 19.12203789 21.96187401 C16.5611563 21.96238795 14.00027118 21.96763936 11.43940926 21.97768593 C7.86038953 21.99000354 4.28189204 21.98328629 0.70288086 21.97167969 C-0.88775681 21.98314529 -0.88775681 21.98314529 -2.51052856 21.99484253 C-11.57070379 21.9298045 -11.57070379 21.9298045 -15.44970703 18.59936523 C-17.76733619 15.20017581 -18.43984415 13.16154941 -18.51220703 9.03686523 C-17.4267859 5.52520864 -16.33128858 3.8867414 -13.45077896 1.63175774 C-9.26521479 -0.52765742 -4.60381498 -0.06349822 0 0 Z " fill="#fff" transform="translate(380.44970703125,343.400634765625)"/>
<path d="M0 0 C3.32337745 2.33982868 4.90556041 4.08955253 5.76193237 8.1360321 C5.99229454 11.95529793 5.99803341 15.73949454 5.91934204 19.5615387 C5.9138931 20.97587325 5.91111821 22.3902204 5.91088867 23.80456543 C5.90317864 26.76137978 5.87231044 29.71670018 5.82315063 32.67311096 C5.76082976 36.4550308 5.74230805 40.23552281 5.7393589 44.01790714 C5.73464938 46.9357387 5.7138394 49.85326922 5.68748093 52.77097893 C5.67545615 54.16515604 5.66673344 55.55936581 5.66142654 56.95358467 C5.65016461 58.90386069 5.61651224 60.85396825 5.5819397 62.80397034 C5.5674881 63.91172318 5.5530365 65.01947601 5.53814697 66.16079712 C4.94053801 70.54261446 3.27196471 73.17279516 -0.05722046 76.02638245 C-3.85187881 77.54424578 -7.05332668 77.43893348 -10.86972046 76.15138245 C-13.51205815 73.95880436 -15.33641855 72.21798626 -16.86972046 69.15138245 C-16.98665174 67.18212342 -17.03945897 65.20893531 -17.06259155 63.23634338 C-17.07865448 61.99455322 -17.09471741 60.75276306 -17.11126709 59.4733429 C-17.12275537 58.11082138 -17.13336377 56.7482922 -17.14315796 55.38575745 C-17.14848164 54.70002907 -17.15380531 54.01430069 -17.15929031 53.30779266 C-17.18601945 49.67640297 -17.20539278 46.04504759 -17.21981812 42.41358948 C-17.23314525 39.41230202 -17.26097333 36.41169645 -17.30184937 33.41065979 C-17.35124888 29.78375316 -17.37594807 26.15746396 -17.3830452 22.53023529 C-17.38974577 21.15074679 -17.4049371 19.77127141 -17.428936 18.3919754 C-17.62808494 6.25097541 -17.62808494 6.25097541 -14.52450562 2.32032776 C-10.2247214 -1.19257301 -5.25812892 -2.38652815 0 0 Z " fill="#fff" transform="translate(377.8697204589844,462.84861755371094)"/>
<path d="M0 0 C4.97179777 3.9647172 9.29018253 9.17818556 10.08203125 15.7109375 C10.64182663 22.31652294 9.45165709 26.98147597 6.08203125 32.7109375 C1.44600213 38.20097198 -3.76492245 42.00916077 -10.92578125 42.984375 C-18.45506465 43.34555834 -24.43383737 40.84151311 -30.03515625 35.80859375 C-35.59717654 29.79653448 -37.41830876 24.39267789 -37.234375 16.23828125 C-36.41412439 9.68640292 -32.85040949 4.93874385 -27.91796875 0.7109375 C-19.03207211 -5.81747636 -9.26314265 -6.22573743 0 0 Z M-21.91796875 13.7109375 C-23.46821339 16.81142678 -23.2078889 19.28987968 -22.91796875 22.7109375 C-21.37959268 25.65949164 -20.25720585 27.25800136 -17.046875 28.34375 C-13.50763191 28.97265142 -11.40411559 28.91173728 -8.04296875 27.5234375 C-5.74559282 25.56391097 -4.72477487 24.61543953 -3.91796875 21.7109375 C-4.060834 17.71071063 -4.30068312 15.46761021 -6.85546875 12.3359375 C-12.36883058 7.99207666 -17.00484102 8.93818485 -21.91796875 13.7109375 Z " fill="#fff" transform="translate(662.91796875,334.2890625)"/>
<path d="M0 0 C5.81369037 3.68945735 8.80935759 8.48376706 11 15 C12.41106016 22.9884212 10.53640048 29.36341412 6 36 C1.3247235 41.63465405 -5.42557523 43.54507321 -12.4375 44.4375 C-20.48433533 43.44929215 -26.54925424 40.64593015 -31.58984375 34.19921875 C-35.44477478 28.18723491 -36.65872724 22.49900908 -35.63671875 15.421875 C-33.8687342 8.69702578 -29.67265697 3.89299988 -24 0 C-15.77406303 -4.16333137 -8.32559801 -3.74423604 0 0 Z M-21 15 C-22.56935594 18.13871188 -22.35201103 20.53855822 -22 24 C-19.04663048 27.57513152 -16.87994881 29.74364334 -12.25 30.375 C-7.79453881 29.86090832 -6.03105225 28.24252101 -3 25 C-1.72971345 21.41330858 -1.65606139 19.82163111 -3.125 16.3125 C-5.79853359 13.01514191 -8.23246922 11.31724912 -12.4375 10.5625 C-15.99210343 11.16938351 -18.17452662 12.81667966 -21 15 Z " fill="#fff" transform="translate(603,333)"/>
<path d="M0 0 C4.28590933 2.79515826 7.22425239 5.92275717 8.875 10.875 C9.6035368 17.7065254 9.14421249 22.40165065 4.875 27.875 C0.78406632 31.44661826 -3.46785513 32.59064795 -8.8515625 32.32421875 C-14.27140875 31.25328693 -17.94284598 28.14581557 -21.625 24.1875 C-24.18193133 18.54094331 -23.97951958 13.30363459 -21.9375 7.5 C-16.67601657 -0.12007946 -8.86472334 -3.1913004 0 0 Z " fill="#fff" transform="translate(538.125,338.125)"/>
<path d="M0 0 C0.33 16.5 0.66 33 1 50 C-1.40233858 47.59766142 -1.26257468 47.01647698 -1.31884766 43.73388672 C-1.33871735 42.85312469 -1.35858704 41.97236267 -1.37905884 41.06491089 C-1.39061005 40.11278717 -1.40216125 39.16066345 -1.4140625 38.1796875 C-1.43342865 37.20589142 -1.4527948 36.23209534 -1.4727478 35.22879028 C-1.53264558 32.11094997 -1.57896971 28.99307294 -1.625 25.875 C-1.66317039 23.76430659 -1.70222156 21.65362892 -1.7421875 19.54296875 C-1.83835549 14.36210657 -1.92234872 9.18117147 -2 4 C-3.98 6.31 -5.96 8.62 -8 11 C-8.33 10.01 -8.66 9.02 -9 8 C-7.6905332 6.66368764 -6.37734515 5.33102075 -5.0625 4 C-3.96615234 2.88625 -3.96615234 2.88625 -2.84765625 1.75 C-1 0 -1 0 0 0 Z " fill="#fff" transform="translate(335,344)"/>
<path d="M0 0 C0.99 0.33 1.98 0.66 3 1 C1.99088542 2.7578125 0.98177083 4.515625 -0.02734375 6.2734375 C-1.8578457 9.52276225 -2.25851394 11.89031415 -2.5625 15.625 C-2.68818359 17.12933594 -2.68818359 17.12933594 -2.81640625 18.6640625 C-2.87699219 19.43492187 -2.93757812 20.20578125 -3 21 C-3.66 20.67 -4.32 20.34 -5 20 C-5.76258253 12.03524914 -4.07063514 6.83285184 0 0 Z " fill="#fff" transform="translate(249,699)"/>
<path d="M0 0 C0 3.52032428 -0.70351351 4.4385343 -3 7 C-3.66 7 -4.32 7 -5 7 C-5.20625 7.928125 -5.4125 8.85625 -5.625 9.8125 C-7 13 -7 13 -10 14.9375 C-10.99 15.288125 -11.98 15.63875 -13 16 C-13.66 15.67 -14.32 15.34 -15 15 C-10.05 10.05 -5.1 5.1 0 0 Z " fill="#fff" transform="translate(275,257)"/>
<path d="M0 0 C2.31 0.33 4.62 0.66 7 1 C6 4 6 4 3.93359375 5.16796875 C3.10988281 5.50441406 2.28617188 5.84085938 1.4375 6.1875 C0.61121094 6.53167969 -0.21507812 6.87585938 -1.06640625 7.23046875 C-1.70449219 7.48441406 -2.34257813 7.73835937 -3 8 C-2.09456151 5.28368454 -1.07525194 2.65228812 0 0 Z " fill="#fff" transform="translate(621,717)"/>
<path d="M0 0 C-1.65783091 3.91850942 -4.10938356 6.90291096 -7 10 C-9.3125 10.875 -9.3125 10.875 -11 11 C-8.93654413 7.10236113 -4.86847568 0 0 0 Z " fill="#fff" transform="translate(446,482)"/>
<path d="M0 0 C2.86697492 1.28519565 4.97607712 2.57129254 7 5 C7 5.66 7 6.32 7 7 C8.32 7.66 9.64 8.32 11 9 C10.34 9.66 9.68 10.32 9 11 C7.49403892 9.54782324 5.99537896 8.08807139 4.5 6.625 C3.6646875 5.81289063 2.829375 5.00078125 1.96875 4.1640625 C0 2 0 2 0 0 Z " fill="#fff" transform="translate(281,761)"/>
<path d="M0 0 C0.66 0 1.32 0 2 0 C1.67 1.98 1.34 3.96 1 6 C0.34 6 -0.32 6 -1 6 C-1.33 7.32 -1.66 8.64 -2 10 C-2.66 10 -3.32 10 -4 10 C-2.8905928 6.51329166 -1.73662334 3.22515763 0 0 Z " fill="#fff" transform="translate(295,399)"/>
<path d="M0 0 C0.99 0 1.98 0 3 0 C2.1875 1.9375 2.1875 1.9375 1 4 C0.01 4.33 -0.98 4.66 -2 5 C-3.20882096 7.00016466 -3.20882096 7.00016466 -4 9 C-4.33 8.01 -4.66 7.02 -5 6 C-2.75 2.8125 -2.75 2.8125 0 0 Z " fill="#fff" transform="translate(521,340)"/>
<path d="M0 0 C0 0.66 0 1.32 0 2 C-2.75 4.6875 -2.75 4.6875 -6 7 C-8.203125 6.64453125 -8.203125 6.64453125 -10 6 C-8.71283353 4.99421411 -7.42011342 3.99553202 -6.125 3 C-5.40570313 2.443125 -4.68640625 1.88625 -3.9453125 1.3125 C-2 0 -2 0 0 0 Z " fill="#fff" transform="translate(474,162)"/>
<path d="M0 0 C0.99 0.33 1.98 0.66 3 1 C-0.625 7.875 -0.625 7.875 -4 9 C-2.94124926 5.59687262 -1.99097846 2.98646769 0 0 Z " fill="#fff" transform="translate(249,699)"/>
<path d="M0 0 C0 0.66 0 1.32 0 2 C0.99 2.33 1.98 2.66 3 3 C-5.57142857 2.14285714 -5.57142857 2.14285714 -9 0 C-5.67465243 -1.10844919 -3.37817425 -0.84454356 0 0 Z " fill="#fff" transform="translate(443,793)"/>
<path d="M0 0 C1.98 0.66 3.96 1.32 6 2 C2.55549263 4.29633824 0.06187717 4.54016485 -4 5 C-3.34 4.67 -2.68 4.34 -2 4 C-2 3.34 -2 2.68 -2 2 C-1.34 2 -0.68 2 0 2 C0 1.34 0 0.68 0 0 Z " fill="#fff" transform="translate(442,256)"/>
<path d="M0 0 C0.66 0.99 1.32 1.98 2 3 C0.63016497 6.16115776 0.0109362 6.9927092 -3 9 C-2.44271087 5.65626525 -1.64826111 2.96687001 0 0 Z " fill="#fff" transform="translate(425,506)"/>
<path d="M0 0 C0 3.58912412 -0.66436554 4.10857029 -3 6.6875 C-3.556875 7.31011719 -4.11375 7.93273437 -4.6875 8.57421875 C-5.120625 9.04472656 -5.55375 9.51523437 -6 10 C-6.33 9.01 -6.66 8.02 -7 7 C-4.69 4.69 -2.38 2.38 0 0 Z " fill="#fff" transform="translate(333,345)"/>
<path d="M0 0 C1.65 0 3.3 0 5 0 C5 0.66 5 1.32 5 2 C5.66 2 6.32 2 7 2 C7.33 2.99 7.66 3.98 8 5 C2.25 3.375 2.25 3.375 0 0 Z " fill="#fff" transform="translate(397,716)"/>
<path d="M0 0 C0.66 0 1.32 0 2 0 C2.33 2.64 2.66 5.28 3 8 C2.01 7.67 1.02 7.34 0 7 C-1.17755913 4.05610218 -1.03348696 3.10046087 0 0 Z " fill="#fff" transform="translate(805,433)"/>
<path d="M0 0 C0.6875 1.6875 0.6875 1.6875 1 4 C-0.3125 6.75 -0.3125 6.75 -2 9 C-2.66 9 -3.32 9 -4 9 C-2.80100302 5.9168649 -1.52299523 2.93720508 0 0 Z " fill="#fff" transform="translate(303,384)"/>
<path d="M0 0 C3.96 1.98 3.96 1.98 8 4 C8 4.33 8 4.66 8 5 C6.02 5 4.04 5 2 5 C1.34 3.35 0.68 1.7 0 0 Z " fill="#fff" transform="translate(637,302)"/>
<path d="M0 0 C0 3.90838866 -1.50567876 5.11594107 -4 8 C-4.99 7.67 -5.98 7.34 -7 7 C-4.69 4.69 -2.38 2.38 0 0 Z " fill="#fff" transform="translate(297,235)"/>
<path d="M0 0 C0 3.90838866 -1.50567876 5.11594107 -4 8 C-4.99 7.67 -5.98 7.34 -7 7 C-4.69 4.69 -2.38 2.38 0 0 Z " fill="#fff" transform="translate(257,275)"/>
<path d="M0 0 C3.625 0.375 3.625 0.375 7 1 C7 1.99 7 2.98 7 4 C2.545 3.01 2.545 3.01 -2 2 C-1.34 1.34 -0.68 0.68 0 0 Z " fill="#fff" transform="translate(605,264)"/>
<path d="M0 0 C0 3 0 3 -2.5 5.6875 C-3.325 6.450625 -4.15 7.21375 -5 8 C-5.66 7.67 -6.32 7.34 -7 7 C-4.69 4.69 -2.38 2.38 0 0 Z " fill="#fff" transform="translate(275,257)"/>
<path d="M0 0 C0.66 0 1.32 0 2 0 C1.375 1.875 1.375 1.875 0 4 C-3.125 5.25 -3.125 5.25 -6 6 C-4 4 -2 2 0 0 Z " fill="#fff" transform="translate(455,473)"/>
<path d="M0 0 C0.66 0 1.32 0 2 0 C3.25664978 2.90600261 4 4.79604584 4 8 C3.34 8 2.68 8 2 8 C0.74335022 5.09399739 0 3.20395416 0 0 Z " fill="#fff" transform="translate(792,393)"/>
</svg>
